<mxfile host="app.diagrams.net" agent="Mozilla/5.0 (X11; Linux x86_64) AppleWebKit/537.36 (KHTML, like Gecko) Chrome/131.0.0.0 Safari/537.36" version="25.0.3">
  <diagram name="第 1 页" id="K9MGwvxjwg-Gw5xCQuMi">
    <mxGraphModel dx="470" dy="518" grid="1" gridSize="10" guides="1" tooltips="1" connect="1" arrows="1" fold="1" page="1" pageScale="1" pageWidth="827" pageHeight="1169" math="0" shadow="0">
      <root>
        <mxCell id="0" />
        <mxCell id="1" parent="0" />
        <mxCell id="ZkxrsL6bo6cZLsRYmsVq-3" style="edgeStyle=orthogonalEdgeStyle;rounded=0;orthogonalLoop=1;jettySize=auto;html=1;exitX=0.5;exitY=1;exitDx=0;exitDy=0;entryX=0.5;entryY=0;entryDx=0;entryDy=0;" edge="1" parent="1" source="ZkxrsL6bo6cZLsRYmsVq-1" target="ZkxrsL6bo6cZLsRYmsVq-2">
          <mxGeometry relative="1" as="geometry" />
        </mxCell>
        <mxCell id="ZkxrsL6bo6cZLsRYmsVq-1" value="開始" style="ellipse;whiteSpace=wrap;html=1;" vertex="1" parent="1">
          <mxGeometry x="294" y="40" width="120" height="80" as="geometry" />
        </mxCell>
        <mxCell id="ZkxrsL6bo6cZLsRYmsVq-5" style="edgeStyle=orthogonalEdgeStyle;rounded=0;orthogonalLoop=1;jettySize=auto;html=1;exitX=0.5;exitY=1;exitDx=0;exitDy=0;entryX=0.5;entryY=0;entryDx=0;entryDy=0;" edge="1" parent="1" source="ZkxrsL6bo6cZLsRYmsVq-2" target="ZkxrsL6bo6cZLsRYmsVq-4">
          <mxGeometry relative="1" as="geometry" />
        </mxCell>
        <mxCell id="ZkxrsL6bo6cZLsRYmsVq-2" value="&lt;p data-pm-slice=&quot;1 1 [&amp;quot;ordered_list&amp;quot;,{&amp;quot;spread&amp;quot;:false,&amp;quot;startingNumber&amp;quot;:1,&amp;quot;start&amp;quot;:856,&amp;quot;end&amp;quot;:1147},&amp;quot;regular_list_item&amp;quot;,{&amp;quot;start&amp;quot;:862,&amp;quot;end&amp;quot;:905}]&quot;&gt;初始化 &lt;code&gt;deque&lt;/code&gt;, &lt;code&gt;unordered_map&lt;/code&gt; (記錄頻率) 和計數器&lt;/p&gt;" style="rounded=1;whiteSpace=wrap;html=1;" vertex="1" parent="1">
          <mxGeometry x="272" y="160" width="164" height="60" as="geometry" />
        </mxCell>
        <mxCell id="ZkxrsL6bo6cZLsRYmsVq-8" style="edgeStyle=orthogonalEdgeStyle;rounded=0;orthogonalLoop=1;jettySize=auto;html=1;exitX=0.5;exitY=1;exitDx=0;exitDy=0;entryX=0.5;entryY=0;entryDx=0;entryDy=0;" edge="1" parent="1" source="ZkxrsL6bo6cZLsRYmsVq-4" target="ZkxrsL6bo6cZLsRYmsVq-6">
          <mxGeometry relative="1" as="geometry" />
        </mxCell>
        <mxCell id="ZkxrsL6bo6cZLsRYmsVq-26" style="edgeStyle=orthogonalEdgeStyle;rounded=0;orthogonalLoop=1;jettySize=auto;html=1;exitX=1;exitY=0.5;exitDx=0;exitDy=0;" edge="1" parent="1" source="ZkxrsL6bo6cZLsRYmsVq-4" target="ZkxrsL6bo6cZLsRYmsVq-25">
          <mxGeometry relative="1" as="geometry" />
        </mxCell>
        <mxCell id="ZkxrsL6bo6cZLsRYmsVq-4" value="&lt;p data-pm-slice=&quot;1 1 [&amp;quot;ordered_list&amp;quot;,{&amp;quot;spread&amp;quot;:false,&amp;quot;startingNumber&amp;quot;:1,&amp;quot;start&amp;quot;:856,&amp;quot;end&amp;quot;:1147},&amp;quot;regular_list_item&amp;quot;,{&amp;quot;start&amp;quot;:906,&amp;quot;end&amp;quot;:1106},&amp;quot;list&amp;quot;,{&amp;quot;spread&amp;quot;:false,&amp;quot;start&amp;quot;:928,&amp;quot;end&amp;quot;:1106},&amp;quot;regular_list_item&amp;quot;,{&amp;quot;start&amp;quot;:928,&amp;quot;end&amp;quot;:1106}]&quot;&gt;頁面是否存在於 &lt;code&gt;deque&lt;/code&gt; 中？&lt;/p&gt;" style="rhombus;whiteSpace=wrap;html=1;" vertex="1" parent="1">
          <mxGeometry x="232" y="260" width="244" height="80" as="geometry" />
        </mxCell>
        <mxCell id="ZkxrsL6bo6cZLsRYmsVq-12" style="edgeStyle=orthogonalEdgeStyle;rounded=0;orthogonalLoop=1;jettySize=auto;html=1;exitX=0.5;exitY=1;exitDx=0;exitDy=0;entryX=0.5;entryY=0;entryDx=0;entryDy=0;" edge="1" parent="1" source="ZkxrsL6bo6cZLsRYmsVq-6" target="ZkxrsL6bo6cZLsRYmsVq-11">
          <mxGeometry relative="1" as="geometry" />
        </mxCell>
        <mxCell id="ZkxrsL6bo6cZLsRYmsVq-6" value="&lt;p data-pm-slice=&quot;1 1 [&amp;quot;ordered_list&amp;quot;,{&amp;quot;spread&amp;quot;:false,&amp;quot;startingNumber&amp;quot;:1,&amp;quot;start&amp;quot;:856,&amp;quot;end&amp;quot;:1147},&amp;quot;regular_list_item&amp;quot;,{&amp;quot;start&amp;quot;:906,&amp;quot;end&amp;quot;:1106},&amp;quot;list&amp;quot;,{&amp;quot;spread&amp;quot;:false,&amp;quot;start&amp;quot;:928,&amp;quot;end&amp;quot;:1106},&amp;quot;regular_list_item&amp;quot;,{&amp;quot;start&amp;quot;:928,&amp;quot;end&amp;quot;:1106},&amp;quot;list&amp;quot;,{&amp;quot;spread&amp;quot;:false,&amp;quot;start&amp;quot;:954,&amp;quot;end&amp;quot;:1106},&amp;quot;regular_list_item&amp;quot;,{&amp;quot;start&amp;quot;:972,&amp;quot;end&amp;quot;:1106},&amp;quot;list&amp;quot;,{&amp;quot;spread&amp;quot;:false,&amp;quot;start&amp;quot;:984,&amp;quot;end&amp;quot;:1106},&amp;quot;regular_list_item&amp;quot;,{&amp;quot;start&amp;quot;:984,&amp;quot;end&amp;quot;:1002}]&quot;&gt;增加 Page Fault 計數&lt;/p&gt;" style="rounded=1;whiteSpace=wrap;html=1;" vertex="1" parent="1">
          <mxGeometry x="282" y="380" width="144" height="60" as="geometry" />
        </mxCell>
        <mxCell id="ZkxrsL6bo6cZLsRYmsVq-9" value="否" style="text;html=1;align=center;verticalAlign=middle;resizable=0;points=[];autosize=1;strokeColor=none;fillColor=none;" vertex="1" parent="1">
          <mxGeometry x="350" y="344" width="40" height="30" as="geometry" />
        </mxCell>
        <mxCell id="ZkxrsL6bo6cZLsRYmsVq-15" style="edgeStyle=orthogonalEdgeStyle;rounded=0;orthogonalLoop=1;jettySize=auto;html=1;exitX=0.5;exitY=1;exitDx=0;exitDy=0;entryX=0.5;entryY=0;entryDx=0;entryDy=0;" edge="1" parent="1" source="ZkxrsL6bo6cZLsRYmsVq-11" target="ZkxrsL6bo6cZLsRYmsVq-13">
          <mxGeometry relative="1" as="geometry" />
        </mxCell>
        <mxCell id="ZkxrsL6bo6cZLsRYmsVq-11" value="&lt;p data-pm-slice=&quot;1 1 [&amp;quot;ordered_list&amp;quot;,{&amp;quot;spread&amp;quot;:false,&amp;quot;startingNumber&amp;quot;:1,&amp;quot;start&amp;quot;:856,&amp;quot;end&amp;quot;:1146},&amp;quot;regular_list_item&amp;quot;,{&amp;quot;start&amp;quot;:906,&amp;quot;end&amp;quot;:1106},&amp;quot;list&amp;quot;,{&amp;quot;spread&amp;quot;:false,&amp;quot;start&amp;quot;:928,&amp;quot;end&amp;quot;:1106},&amp;quot;regular_list_item&amp;quot;,{&amp;quot;start&amp;quot;:928,&amp;quot;end&amp;quot;:1106},&amp;quot;list&amp;quot;,{&amp;quot;spread&amp;quot;:false,&amp;quot;start&amp;quot;:954,&amp;quot;end&amp;quot;:1106},&amp;quot;regular_list_item&amp;quot;,{&amp;quot;start&amp;quot;:972,&amp;quot;end&amp;quot;:1106},&amp;quot;list&amp;quot;,{&amp;quot;spread&amp;quot;:false,&amp;quot;start&amp;quot;:984,&amp;quot;end&amp;quot;:1106},&amp;quot;regular_list_item&amp;quot;,{&amp;quot;start&amp;quot;:1010,&amp;quot;end&amp;quot;:1076}]&quot;&gt;若頁框是否已滿&lt;/p&gt;" style="rhombus;whiteSpace=wrap;html=1;" vertex="1" parent="1">
          <mxGeometry x="237" y="480" width="234" height="80" as="geometry" />
        </mxCell>
        <mxCell id="ZkxrsL6bo6cZLsRYmsVq-16" style="edgeStyle=orthogonalEdgeStyle;rounded=0;orthogonalLoop=1;jettySize=auto;html=1;exitX=0.5;exitY=1;exitDx=0;exitDy=0;entryX=0.5;entryY=0;entryDx=0;entryDy=0;" edge="1" parent="1" source="ZkxrsL6bo6cZLsRYmsVq-13" target="ZkxrsL6bo6cZLsRYmsVq-14">
          <mxGeometry relative="1" as="geometry" />
        </mxCell>
        <mxCell id="ZkxrsL6bo6cZLsRYmsVq-13" value="&lt;p data-pm-slice=&quot;1 1 [&amp;quot;ordered_list&amp;quot;,{&amp;quot;spread&amp;quot;:false,&amp;quot;startingNumber&amp;quot;:1,&amp;quot;start&amp;quot;:856,&amp;quot;end&amp;quot;:1146},&amp;quot;regular_list_item&amp;quot;,{&amp;quot;start&amp;quot;:906,&amp;quot;end&amp;quot;:1106},&amp;quot;list&amp;quot;,{&amp;quot;spread&amp;quot;:false,&amp;quot;start&amp;quot;:928,&amp;quot;end&amp;quot;:1106},&amp;quot;regular_list_item&amp;quot;,{&amp;quot;start&amp;quot;:928,&amp;quot;end&amp;quot;:1106},&amp;quot;list&amp;quot;,{&amp;quot;spread&amp;quot;:false,&amp;quot;start&amp;quot;:954,&amp;quot;end&amp;quot;:1106},&amp;quot;regular_list_item&amp;quot;,{&amp;quot;start&amp;quot;:972,&amp;quot;end&amp;quot;:1106},&amp;quot;list&amp;quot;,{&amp;quot;spread&amp;quot;:false,&amp;quot;start&amp;quot;:984,&amp;quot;end&amp;quot;:1106},&amp;quot;regular_list_item&amp;quot;,{&amp;quot;start&amp;quot;:1010,&amp;quot;end&amp;quot;:1076},&amp;quot;list&amp;quot;,{&amp;quot;spread&amp;quot;:false,&amp;quot;start&amp;quot;:1028,&amp;quot;end&amp;quot;:1076},&amp;quot;regular_list_item&amp;quot;,{&amp;quot;start&amp;quot;:1028,&amp;quot;end&amp;quot;:1039}]&quot;&gt;找到頻率最低的頁面&lt;/p&gt;" style="rounded=1;whiteSpace=wrap;html=1;" vertex="1" parent="1">
          <mxGeometry x="294" y="600" width="120" height="60" as="geometry" />
        </mxCell>
        <mxCell id="ZkxrsL6bo6cZLsRYmsVq-19" style="edgeStyle=orthogonalEdgeStyle;rounded=0;orthogonalLoop=1;jettySize=auto;html=1;exitX=0.5;exitY=1;exitDx=0;exitDy=0;entryX=0.5;entryY=0;entryDx=0;entryDy=0;" edge="1" parent="1" source="ZkxrsL6bo6cZLsRYmsVq-14" target="ZkxrsL6bo6cZLsRYmsVq-18">
          <mxGeometry relative="1" as="geometry" />
        </mxCell>
        <mxCell id="ZkxrsL6bo6cZLsRYmsVq-23" style="edgeStyle=orthogonalEdgeStyle;rounded=0;orthogonalLoop=1;jettySize=auto;html=1;exitX=1;exitY=0.5;exitDx=0;exitDy=0;entryX=1;entryY=0.5;entryDx=0;entryDy=0;" edge="1" parent="1" source="ZkxrsL6bo6cZLsRYmsVq-14" target="ZkxrsL6bo6cZLsRYmsVq-21">
          <mxGeometry relative="1" as="geometry">
            <Array as="points">
              <mxPoint x="510" y="740" />
              <mxPoint x="510" y="950" />
            </Array>
          </mxGeometry>
        </mxCell>
        <mxCell id="ZkxrsL6bo6cZLsRYmsVq-14" value="&lt;p data-pm-slice=&quot;1 1 [&amp;quot;ordered_list&amp;quot;,{&amp;quot;spread&amp;quot;:false,&amp;quot;startingNumber&amp;quot;:1,&amp;quot;start&amp;quot;:856,&amp;quot;end&amp;quot;:1146},&amp;quot;regular_list_item&amp;quot;,{&amp;quot;start&amp;quot;:906,&amp;quot;end&amp;quot;:1106},&amp;quot;list&amp;quot;,{&amp;quot;spread&amp;quot;:false,&amp;quot;start&amp;quot;:928,&amp;quot;end&amp;quot;:1106},&amp;quot;regular_list_item&amp;quot;,{&amp;quot;start&amp;quot;:928,&amp;quot;end&amp;quot;:1106},&amp;quot;list&amp;quot;,{&amp;quot;spread&amp;quot;:false,&amp;quot;start&amp;quot;:954,&amp;quot;end&amp;quot;:1106},&amp;quot;regular_list_item&amp;quot;,{&amp;quot;start&amp;quot;:972,&amp;quot;end&amp;quot;:1106},&amp;quot;list&amp;quot;,{&amp;quot;spread&amp;quot;:false,&amp;quot;start&amp;quot;:984,&amp;quot;end&amp;quot;:1106},&amp;quot;regular_list_item&amp;quot;,{&amp;quot;start&amp;quot;:1010,&amp;quot;end&amp;quot;:1076},&amp;quot;list&amp;quot;,{&amp;quot;spread&amp;quot;:false,&amp;quot;start&amp;quot;:1028,&amp;quot;end&amp;quot;:1076},&amp;quot;regular_list_item&amp;quot;,{&amp;quot;start&amp;quot;:1049,&amp;quot;end&amp;quot;:1076}]&quot;&gt;是否有多個頁面頻率相同&lt;/p&gt;" style="rhombus;whiteSpace=wrap;html=1;" vertex="1" parent="1">
          <mxGeometry x="232" y="700" width="244" height="80" as="geometry" />
        </mxCell>
        <mxCell id="ZkxrsL6bo6cZLsRYmsVq-17" value="是" style="text;html=1;align=center;verticalAlign=middle;resizable=0;points=[];autosize=1;strokeColor=none;fillColor=none;" vertex="1" parent="1">
          <mxGeometry x="352" y="565" width="40" height="30" as="geometry" />
        </mxCell>
        <mxCell id="ZkxrsL6bo6cZLsRYmsVq-22" style="edgeStyle=orthogonalEdgeStyle;rounded=0;orthogonalLoop=1;jettySize=auto;html=1;exitX=0.5;exitY=1;exitDx=0;exitDy=0;entryX=0.5;entryY=0;entryDx=0;entryDy=0;" edge="1" parent="1" source="ZkxrsL6bo6cZLsRYmsVq-18" target="ZkxrsL6bo6cZLsRYmsVq-21">
          <mxGeometry relative="1" as="geometry" />
        </mxCell>
        <mxCell id="ZkxrsL6bo6cZLsRYmsVq-18" value="&lt;p data-pm-slice=&quot;1 1 [&amp;quot;ordered_list&amp;quot;,{&amp;quot;spread&amp;quot;:false,&amp;quot;startingNumber&amp;quot;:1,&amp;quot;start&amp;quot;:856,&amp;quot;end&amp;quot;:1146},&amp;quot;regular_list_item&amp;quot;,{&amp;quot;start&amp;quot;:906,&amp;quot;end&amp;quot;:1106},&amp;quot;list&amp;quot;,{&amp;quot;spread&amp;quot;:false,&amp;quot;start&amp;quot;:928,&amp;quot;end&amp;quot;:1106},&amp;quot;regular_list_item&amp;quot;,{&amp;quot;start&amp;quot;:928,&amp;quot;end&amp;quot;:1106},&amp;quot;list&amp;quot;,{&amp;quot;spread&amp;quot;:false,&amp;quot;start&amp;quot;:954,&amp;quot;end&amp;quot;:1106},&amp;quot;regular_list_item&amp;quot;,{&amp;quot;start&amp;quot;:972,&amp;quot;end&amp;quot;:1106},&amp;quot;list&amp;quot;,{&amp;quot;spread&amp;quot;:false,&amp;quot;start&amp;quot;:984,&amp;quot;end&amp;quot;:1106},&amp;quot;regular_list_item&amp;quot;,{&amp;quot;start&amp;quot;:1010,&amp;quot;end&amp;quot;:1076},&amp;quot;list&amp;quot;,{&amp;quot;spread&amp;quot;:false,&amp;quot;start&amp;quot;:1028,&amp;quot;end&amp;quot;:1076},&amp;quot;regular_list_item&amp;quot;,{&amp;quot;start&amp;quot;:1049,&amp;quot;end&amp;quot;:1076}]&quot;&gt;按 FIFO 移除最早的頁面&lt;/p&gt;" style="rounded=1;whiteSpace=wrap;html=1;" vertex="1" parent="1">
          <mxGeometry x="277" y="820" width="154" height="60" as="geometry" />
        </mxCell>
        <mxCell id="ZkxrsL6bo6cZLsRYmsVq-20" value="是" style="text;html=1;align=center;verticalAlign=middle;resizable=0;points=[];autosize=1;strokeColor=none;fillColor=none;" vertex="1" parent="1">
          <mxGeometry x="346" y="786" width="40" height="30" as="geometry" />
        </mxCell>
        <mxCell id="ZkxrsL6bo6cZLsRYmsVq-29" style="edgeStyle=orthogonalEdgeStyle;rounded=0;orthogonalLoop=1;jettySize=auto;html=1;entryX=0.5;entryY=0;entryDx=0;entryDy=0;" edge="1" parent="1" source="ZkxrsL6bo6cZLsRYmsVq-21" target="ZkxrsL6bo6cZLsRYmsVq-28">
          <mxGeometry relative="1" as="geometry" />
        </mxCell>
        <mxCell id="ZkxrsL6bo6cZLsRYmsVq-21" value="&lt;p data-pm-slice=&quot;1 1 [&amp;quot;ordered_list&amp;quot;,{&amp;quot;spread&amp;quot;:false,&amp;quot;startingNumber&amp;quot;:1,&amp;quot;start&amp;quot;:856,&amp;quot;end&amp;quot;:1146},&amp;quot;regular_list_item&amp;quot;,{&amp;quot;start&amp;quot;:906,&amp;quot;end&amp;quot;:1106},&amp;quot;list&amp;quot;,{&amp;quot;spread&amp;quot;:false,&amp;quot;start&amp;quot;:928,&amp;quot;end&amp;quot;:1106},&amp;quot;regular_list_item&amp;quot;,{&amp;quot;start&amp;quot;:928,&amp;quot;end&amp;quot;:1106},&amp;quot;list&amp;quot;,{&amp;quot;spread&amp;quot;:false,&amp;quot;start&amp;quot;:954,&amp;quot;end&amp;quot;:1106},&amp;quot;regular_list_item&amp;quot;,{&amp;quot;start&amp;quot;:972,&amp;quot;end&amp;quot;:1106},&amp;quot;list&amp;quot;,{&amp;quot;spread&amp;quot;:false,&amp;quot;start&amp;quot;:984,&amp;quot;end&amp;quot;:1106},&amp;quot;regular_list_item&amp;quot;,{&amp;quot;start&amp;quot;:1084,&amp;quot;end&amp;quot;:1106}]&quot;&gt;新頁面加入 &lt;code&gt;deque&lt;/code&gt;，頻率設為 1&lt;/p&gt;" style="rounded=1;whiteSpace=wrap;html=1;" vertex="1" parent="1">
          <mxGeometry x="267" y="920" width="174" height="60" as="geometry" />
        </mxCell>
        <mxCell id="ZkxrsL6bo6cZLsRYmsVq-24" value="否" style="text;html=1;align=center;verticalAlign=middle;resizable=0;points=[];autosize=1;strokeColor=none;fillColor=none;" vertex="1" parent="1">
          <mxGeometry x="469" y="740" width="40" height="30" as="geometry" />
        </mxCell>
        <mxCell id="ZkxrsL6bo6cZLsRYmsVq-32" style="edgeStyle=orthogonalEdgeStyle;rounded=0;orthogonalLoop=1;jettySize=auto;html=1;entryX=1;entryY=0.5;entryDx=0;entryDy=0;" edge="1" parent="1" source="ZkxrsL6bo6cZLsRYmsVq-25" target="ZkxrsL6bo6cZLsRYmsVq-28">
          <mxGeometry relative="1" as="geometry">
            <Array as="points">
              <mxPoint x="569" y="1059" />
            </Array>
          </mxGeometry>
        </mxCell>
        <mxCell id="ZkxrsL6bo6cZLsRYmsVq-25" value="&lt;p data-pm-slice=&quot;1 1 [&amp;quot;ordered_list&amp;quot;,{&amp;quot;spread&amp;quot;:false,&amp;quot;startingNumber&amp;quot;:1,&amp;quot;start&amp;quot;:856,&amp;quot;end&amp;quot;:1146},&amp;quot;regular_list_item&amp;quot;,{&amp;quot;start&amp;quot;:906,&amp;quot;end&amp;quot;:1106},&amp;quot;list&amp;quot;,{&amp;quot;spread&amp;quot;:false,&amp;quot;start&amp;quot;:928,&amp;quot;end&amp;quot;:1106},&amp;quot;regular_list_item&amp;quot;,{&amp;quot;start&amp;quot;:928,&amp;quot;end&amp;quot;:1106},&amp;quot;list&amp;quot;,{&amp;quot;spread&amp;quot;:false,&amp;quot;start&amp;quot;:954,&amp;quot;end&amp;quot;:1106},&amp;quot;regular_list_item&amp;quot;,{&amp;quot;start&amp;quot;:954,&amp;quot;end&amp;quot;:966}]&quot;&gt;增加該頁面的頻率&lt;/p&gt;" style="rounded=1;whiteSpace=wrap;html=1;" vertex="1" parent="1">
          <mxGeometry x="509" y="380" width="120" height="60" as="geometry" />
        </mxCell>
        <mxCell id="ZkxrsL6bo6cZLsRYmsVq-27" value="是" style="text;html=1;align=center;verticalAlign=middle;resizable=0;points=[];autosize=1;strokeColor=none;fillColor=none;" vertex="1" parent="1">
          <mxGeometry x="485" y="270" width="40" height="30" as="geometry" />
        </mxCell>
        <mxCell id="ZkxrsL6bo6cZLsRYmsVq-30" style="edgeStyle=orthogonalEdgeStyle;rounded=0;orthogonalLoop=1;jettySize=auto;html=1;entryX=0;entryY=0.5;entryDx=0;entryDy=0;" edge="1" parent="1" source="ZkxrsL6bo6cZLsRYmsVq-28" target="ZkxrsL6bo6cZLsRYmsVq-11">
          <mxGeometry relative="1" as="geometry">
            <Array as="points">
              <mxPoint x="200" y="1059" />
              <mxPoint x="200" y="520" />
            </Array>
          </mxGeometry>
        </mxCell>
        <mxCell id="ZkxrsL6bo6cZLsRYmsVq-34" style="edgeStyle=orthogonalEdgeStyle;rounded=0;orthogonalLoop=1;jettySize=auto;html=1;exitX=0.5;exitY=1;exitDx=0;exitDy=0;entryX=0.5;entryY=0;entryDx=0;entryDy=0;" edge="1" parent="1" source="ZkxrsL6bo6cZLsRYmsVq-28" target="ZkxrsL6bo6cZLsRYmsVq-33">
          <mxGeometry relative="1" as="geometry" />
        </mxCell>
        <mxCell id="ZkxrsL6bo6cZLsRYmsVq-28" value="是否還有頁面要放入deque" style="rhombus;whiteSpace=wrap;html=1;" vertex="1" parent="1">
          <mxGeometry x="241" y="1019" width="226" height="80" as="geometry" />
        </mxCell>
        <mxCell id="ZkxrsL6bo6cZLsRYmsVq-31" value="是" style="text;html=1;align=center;verticalAlign=middle;resizable=0;points=[];autosize=1;strokeColor=none;fillColor=none;" vertex="1" parent="1">
          <mxGeometry x="201" y="1028" width="40" height="30" as="geometry" />
        </mxCell>
        <mxCell id="ZkxrsL6bo6cZLsRYmsVq-37" style="edgeStyle=orthogonalEdgeStyle;rounded=0;orthogonalLoop=1;jettySize=auto;html=1;entryX=0.5;entryY=0;entryDx=0;entryDy=0;" edge="1" parent="1" source="ZkxrsL6bo6cZLsRYmsVq-33" target="ZkxrsL6bo6cZLsRYmsVq-36">
          <mxGeometry relative="1" as="geometry" />
        </mxCell>
        <mxCell id="ZkxrsL6bo6cZLsRYmsVq-33" value="&lt;p data-pm-slice=&quot;1 1 [&amp;quot;ordered_list&amp;quot;,{&amp;quot;spread&amp;quot;:false,&amp;quot;startingNumber&amp;quot;:1,&amp;quot;start&amp;quot;:856,&amp;quot;end&amp;quot;:1146},&amp;quot;regular_list_item&amp;quot;,{&amp;quot;start&amp;quot;:1107,&amp;quot;end&amp;quot;:1140}]&quot;&gt;輸出 PageFault 和 Page Replace 次數&lt;/p&gt;" style="rounded=1;whiteSpace=wrap;html=1;" vertex="1" parent="1">
          <mxGeometry x="294" y="1140" width="120" height="60" as="geometry" />
        </mxCell>
        <mxCell id="ZkxrsL6bo6cZLsRYmsVq-35" value="否" style="text;html=1;align=center;verticalAlign=middle;resizable=0;points=[];autosize=1;strokeColor=none;fillColor=none;" vertex="1" parent="1">
          <mxGeometry x="346" y="1104" width="40" height="30" as="geometry" />
        </mxCell>
        <mxCell id="ZkxrsL6bo6cZLsRYmsVq-36" value="結束" style="ellipse;whiteSpace=wrap;html=1;" vertex="1" parent="1">
          <mxGeometry x="294" y="1240" width="120" height="80" as="geometry" />
        </mxCell>
      </root>
    </mxGraphModel>
  </diagram>
</mxfile>
